<svg width="64" height="64" viewBox="0 0 64 64" fill="none" xmlns="http://www.w3.org/2000/svg">
<g clip-path="url(#clip0_475_2114)">
<path d="M33.9493 64.0105H13.3333C5.98133 64.0105 0 58.0292 0 50.6772V25.9412C0 21.5012 2.19733 17.3705 5.87467 14.8879L24.5413 2.29054C29.072 -0.765465 34.928 -0.765465 39.4587 2.29054L58.6667 15.3039C62.0053 17.8159 64 21.7305 64 25.9412V33.9359C60.088 29.4905 54.3733 26.6665 48 26.6665C36.2373 26.6665 26.6667 36.2372 26.6667 47.9999C26.6667 54.3785 29.496 60.0985 33.9493 64.0105Z" fill="#E8C547"/>
<path d="M48 32C39.1627 32 32 39.1627 32 48C32 56.8373 39.1627 64 48 64C56.8373 64 64 56.8373 64 48C64 39.1627 56.8373 32 48 32ZM57.8213 47.232L50.6133 54.2027C49.408 55.392 47.808 55.992 46.2053 55.992C44.6027 55.992 42.9973 55.392 41.7707 54.1947L38.16 50.6427C37.1067 49.6107 37.0933 47.9227 38.1227 46.872C39.152 45.8187 40.84 45.8027 41.8933 46.8347L45.504 50.384C45.888 50.7627 46.5173 50.7547 46.896 50.3787L54.1307 43.3813C55.1893 42.3653 56.88 42.3947 57.9013 43.4587C58.92 44.52 58.8853 46.208 57.824 47.2293L57.8213 47.232Z" fill="#82AA36"/>
</g>
<defs>
<clipPath id="clip0_475_2114">
<rect width="64" height="64" fill="white"/>
</clipPath>
</defs>
</svg>
