<svg width="64" height="64" viewBox="0 0 64 64" fill="none" xmlns="http://www.w3.org/2000/svg">
<path d="M32.016 32.8241C41.6453 32.7681 46.8293 27.5681 47.008 17.7014C46.8427 8.2081 41.3787 2.73077 31.984 2.66943C22.488 2.7281 16.992 8.3281 16.992 17.7948C16.992 27.2614 22.4907 32.7681 32.016 32.8241Z" fill="#82AA36"/>
<path d="M31.984 36.4292C17.776 36.5199 10.1307 44.1919 9.87467 58.6212C9.86401 59.3359 10.1387 60.0265 10.64 60.5359C11.1413 61.0452 11.8267 61.3332 12.5413 61.3332H51.4613C52.176 61.3332 52.8613 61.0452 53.3627 60.5359C53.864 60.0265 54.1387 59.3359 54.128 58.6212C53.8827 44.3999 46.032 36.5199 31.984 36.4292Z" fill="#E8C547"/>
</svg>
